# xmcd
#
# Track frame offsets:
#	150
#	27187
#	50552
#	77772
#	97432
#	120862
#	141825
#	170577
#	188667
#
# Disc length: 2799 seconds
# Revision: 5
# Processed by: cddbd v1.5.2PL0 Copyright (c) Steve Scherf et al.
# Submitted via: dBpowerAMP V12.0
#
DISCID=750aed09
DTITLE=Terry Evans - Walk That Walk
DYEAR=2000
DGENRE=Blues
TTITLE0=Walk That Walk
TTITLE1=The Story of My Life
TTITLE2=A Stone's Throw Away
TTITLE3=Dancin' With Your Belly Up
TTITLE4=Don't Give Up
TTITLE5=Let's Have a Ball
TTITLE6=I'll Get over You
TTITLE7=I Want to Go Back
TTITLE8=Credit Card Blues
EXTD=
EXTT0=
EXTT1=
EXTT2=
EXTT3=
EXTT4=
EXTT5=
EXTT6=
EXTT7=
EXTT8=
PLAYORDER=
